<svg width="40" height="40" viewBox="0 0 40 40" fill="none" xmlns="http://www.w3.org/2000/svg">
<rect x="1" y="1" width="38" height="38" rx="19" stroke="#2027CF" stroke-width="2"/>
<path d="M14 11C14.2652 11 14.5196 11.1054 14.7071 11.2929C14.8946 11.4804 15 11.7348 15 12V12.88C16.06 12.44 17.5 12 19 12C22 12 22 14 24 14C27 14 28 12 28 12V20C28 20 27 22 24 22C21 22 21 20 19 20C16 20 15 22 15 22V29H13V12C13 11.7348 13.1054 11.4804 13.2929 11.2929C13.4804 11.1054 13.7348 11 14 11Z" fill="#2027CF"/>
</svg>
